<svg width="147" height="44" viewBox="0 0 147 44" fill="none" xmlns="http://www.w3.org/2000/svg">
<g clip-path="url(#clip0_563_69)">
<path d="M82.6348 21.1039L83.9133 24.0542C84.1496 24.598 84.8001 24.8552 85.3677 24.6293C85.9363 24.4057 86.2059 23.783 85.9703 23.2389L84.6921 20.2896L82.6348 21.1039Z" fill="#333333"/>
<path d="M83.4878 23.0706L85.5448 22.2561L83.4878 23.0706Z" fill="#333333"/>
<path d="M79.9373 14.877L82.8465 16.0287L79.9373 14.877Z" fill="#333333"/>
<path d="M81.5203 8.89657C81.5203 10.4644 80.1914 11.735 78.553 11.735C76.9129 11.735 75.5837 10.4644 75.5837 8.89657C75.5837 7.32909 76.9129 6.05908 78.553 6.05908C80.1911 6.05908 81.5203 7.32909 81.5203 8.89657Z" fill="#333333"/>
<path d="M80.0358 8.89649C80.0358 9.68086 79.3719 10.3163 78.5527 10.3163C77.7325 10.3163 77.0669 9.68086 77.0669 8.89649C77.0669 8.11278 77.7325 7.4773 78.5527 7.4773C79.3719 7.47694 80.0358 8.11278 80.0358 8.89649Z" fill="#333333"/>
<path d="M76.4707 10.9197L72.41 20.29L71.3921 24.495L72.0777 24.7665L74.4677 21.1044L75.0363 19.7938C74.5926 18.7692 75.1009 17.5944 76.1724 17.1708L78.5271 11.7341C77.7262 11.7277 77.0016 11.4184 76.4707 10.9197Z" fill="#333333"/>
<path d="M80.633 10.9189C80.1018 11.4183 79.3766 11.7276 78.5757 11.7337L82.0685 19.7921L84.1249 18.9781L80.633 10.9189Z" fill="#333333"/>
<path d="M79.6652 4.63959V1.44617C79.6648 0.857652 79.1649 0.381592 78.552 0.381592C77.9371 0.381592 77.4388 0.857008 77.4385 1.44617L77.4388 4.63959H79.6652Z" fill="#333333"/>
<path d="M78.5528 6.05887C78.7425 6.05887 78.9285 6.07709 79.1085 6.10969V4.63965H77.9956V6.10969C78.1763 6.07676 78.3612 6.05887 78.5528 6.05887Z" fill="#333333"/>
<path d="M63.0956 25.9407H59.3928V0.380859H63.0963C63.9145 0.380859 64.5774 1.01699 64.5774 1.80136V24.5214H64.5771C64.5767 25.3058 63.9138 25.9407 63.0956 25.9407Z" fill="#333333"/>
<path d="M62.911 2.51126C63.2179 2.51126 63.4667 2.27281 63.4667 1.97865C63.4667 1.6845 63.2179 1.44604 62.911 1.44604C62.6042 1.44604 62.3555 1.6845 62.3555 1.97865C62.3555 2.27281 62.6042 2.51126 62.911 2.51126Z" fill="#333333"/>
<path d="M67.1694 15.4695C67.1694 15.7625 67.4184 16.0018 67.725 16.0018C68.032 16.0018 68.2806 15.7625 68.2806 15.4695C68.2806 15.7625 68.5299 16.0018 68.8362 16.0018C69.1431 16.0018 69.3917 15.7625 69.3917 15.4695C69.3917 15.7625 69.1431 16.0018 68.8362 16.0018C68.5299 16.0018 68.2806 15.7625 68.2806 15.4695C68.2806 15.7625 68.032 16.0018 67.725 16.0018C67.4184 16.0018 67.1694 15.7625 67.1694 15.4695Z" fill="#333333"/>
<path d="M67.9103 0.380859C67.5017 0.380859 67.1694 0.699402 67.1694 1.09175V1.09143V16.0016L68.2802 20.2615L69.3914 16.0016V1.09111V1.09143C69.3914 0.699722 69.0595 0.381179 68.6505 0.381179L67.9103 0.380859Z" fill="#333333"/>
</g>
<path d="M3.84863 42H1.77051L1.78418 40.9268H3.84863C4.55957 40.9268 5.15202 40.7786 5.62598 40.4824C6.09993 40.1816 6.4554 39.7624 6.69238 39.2246C6.93392 38.6823 7.05469 38.0488 7.05469 37.3242V36.7158C7.05469 36.1462 6.98633 35.6403 6.84961 35.1982C6.71289 34.7516 6.51237 34.3757 6.24805 34.0703C5.98372 33.7604 5.66016 33.5257 5.27734 33.3662C4.89909 33.2067 4.46387 33.127 3.97168 33.127H1.72949V32.0469H3.97168C4.62337 32.0469 5.2181 32.1562 5.75586 32.375C6.29362 32.5892 6.75618 32.9014 7.14355 33.3115C7.53548 33.7171 7.83626 34.2093 8.0459 34.7881C8.25553 35.3623 8.36035 36.0094 8.36035 36.7295V37.3242C8.36035 38.0443 8.25553 38.6937 8.0459 39.2725C7.83626 39.8467 7.5332 40.3366 7.13672 40.7422C6.74479 41.1478 6.27083 41.46 5.71484 41.6787C5.16341 41.8929 4.54134 42 3.84863 42ZM2.47461 32.0469V42H1.15527V32.0469H2.47461ZM14.5578 32.0469V42H13.2385V32.0469H14.5578ZM27.1127 37.0439V40.6875C26.9896 40.8698 26.7937 41.0749 26.5248 41.3027C26.2559 41.526 25.8845 41.722 25.4105 41.8906C24.9411 42.0547 24.335 42.1367 23.5922 42.1367C22.9861 42.1367 22.4278 42.0319 21.9174 41.8223C21.4115 41.6081 20.9717 41.2982 20.598 40.8926C20.2289 40.4824 19.9418 39.9857 19.7367 39.4023C19.5362 38.8145 19.4359 38.1491 19.4359 37.4062V36.6338C19.4359 35.891 19.5225 35.2279 19.6957 34.6445C19.8734 34.0612 20.1332 33.5667 20.475 33.1611C20.8168 32.751 21.2361 32.4411 21.7328 32.2314C22.2296 32.0173 22.7992 31.9102 23.4418 31.9102C24.2029 31.9102 24.8386 32.0423 25.349 32.3066C25.864 32.5664 26.265 32.9264 26.5521 33.3867C26.8438 33.847 27.0307 34.3711 27.1127 34.959H25.7934C25.7341 34.599 25.6156 34.2708 25.4379 33.9746C25.2647 33.6784 25.0163 33.4414 24.6928 33.2637C24.3692 33.0814 23.9522 32.9902 23.4418 32.9902C22.9815 32.9902 22.5827 33.0745 22.2455 33.2432C21.9083 33.4118 21.6303 33.6533 21.4115 33.9678C21.1928 34.2822 21.0287 34.6628 20.9193 35.1094C20.8145 35.556 20.7621 36.0596 20.7621 36.6201V37.4062C20.7621 37.9805 20.8282 38.4932 20.9604 38.9443C21.0971 39.3955 21.2908 39.7806 21.5414 40.0996C21.7921 40.4141 22.0906 40.6533 22.4369 40.8174C22.7878 40.9814 23.1752 41.0635 23.599 41.0635C24.0684 41.0635 24.449 41.0247 24.7406 40.9473C25.0323 40.8652 25.2602 40.7695 25.4242 40.6602C25.5883 40.5462 25.7136 40.4391 25.8002 40.3389V38.1104H23.4965V37.0439H27.1127ZM35.7779 32.0469V42H34.4791V32.0469H35.7779ZM38.9771 32.0469V33.127H31.2867V32.0469H38.9771ZM46.3914 32.9287L43.0965 42H41.7498L45.5438 32.0469H46.4119L46.3914 32.9287ZM49.1531 42L45.8514 32.9287L45.8309 32.0469H46.699L50.5066 42H49.1531ZM48.9822 38.3154V39.3955H43.3904V38.3154H48.9822ZM60.6758 40.9268V42H55.6992V40.9268H60.6758ZM55.959 32.0469V42H54.6396V32.0469H55.959ZM74.9301 38.0967H72.2709V37.0234H74.9301C75.4451 37.0234 75.862 36.9414 76.1811 36.7773C76.5001 36.6133 76.7325 36.3854 76.8783 36.0938C77.0287 35.8021 77.1039 35.4694 77.1039 35.0957C77.1039 34.7539 77.0287 34.4326 76.8783 34.1318C76.7325 33.8311 76.5001 33.5895 76.1811 33.4072C75.862 33.2204 75.4451 33.127 74.9301 33.127H72.5785V42H71.2592V32.0469H74.9301C75.682 32.0469 76.3178 32.1768 76.8373 32.4365C77.3568 32.6963 77.751 33.0563 78.0199 33.5166C78.2888 33.9723 78.4232 34.4941 78.4232 35.082C78.4232 35.7201 78.2888 36.2646 78.0199 36.7158C77.751 37.167 77.3568 37.5111 76.8373 37.748C76.3178 37.9805 75.682 38.0967 74.9301 38.0967ZM82.8912 32.0469H86.1861C86.9335 32.0469 87.5647 32.1608 88.0797 32.3887C88.5992 32.6165 88.9934 32.9538 89.2623 33.4004C89.5357 33.8424 89.6725 34.387 89.6725 35.0342C89.6725 35.4899 89.579 35.9069 89.3922 36.2852C89.2099 36.6589 88.9456 36.9779 88.5992 37.2422C88.2574 37.502 87.8473 37.6956 87.3688 37.8232L86.9996 37.9668H83.9029L83.8893 36.8936H86.2271C86.7011 36.8936 87.0953 36.8115 87.4098 36.6475C87.7242 36.4788 87.9612 36.2533 88.1207 35.9707C88.2802 35.6882 88.36 35.376 88.36 35.0342C88.36 34.6514 88.2848 34.3164 88.1344 34.0293C87.984 33.7422 87.747 33.5212 87.4234 33.3662C87.1044 33.2067 86.692 33.127 86.1861 33.127H84.2105V42H82.8912V32.0469ZM88.7086 42L86.2887 37.4883L87.6627 37.4814L90.1168 41.918V42H88.7086ZM101.981 36.709V37.3379C101.981 38.0853 101.888 38.7552 101.701 39.3477C101.514 39.9401 101.245 40.4437 100.894 40.8584C100.543 41.2731 100.122 41.5898 99.6297 41.8086C99.1421 42.0273 98.5952 42.1367 97.9891 42.1367C97.4012 42.1367 96.8611 42.0273 96.3689 41.8086C95.8813 41.5898 95.4575 41.2731 95.0975 40.8584C94.742 40.4437 94.4663 39.9401 94.2703 39.3477C94.0743 38.7552 93.9764 38.0853 93.9764 37.3379V36.709C93.9764 35.9616 94.0721 35.2939 94.2635 34.7061C94.4594 34.1136 94.7352 33.61 95.0906 33.1953C95.4461 32.776 95.8676 32.457 96.3553 32.2383C96.8475 32.0195 97.3875 31.9102 97.9754 31.9102C98.5815 31.9102 99.1284 32.0195 99.616 32.2383C100.108 32.457 100.53 32.776 100.881 33.1953C101.236 33.61 101.507 34.1136 101.694 34.7061C101.886 35.2939 101.981 35.9616 101.981 36.709ZM100.676 37.3379V36.6953C100.676 36.1029 100.614 35.5788 100.491 35.123C100.373 34.6673 100.197 34.2845 99.9646 33.9746C99.7322 33.6647 99.4474 33.43 99.1102 33.2705C98.7775 33.111 98.3992 33.0312 97.9754 33.0312C97.5652 33.0312 97.1938 33.111 96.8611 33.2705C96.533 33.43 96.2505 33.6647 96.0135 33.9746C95.7811 34.2845 95.601 34.6673 95.4734 35.123C95.3458 35.5788 95.282 36.1029 95.282 36.6953V37.3379C95.282 37.9349 95.3458 38.4635 95.4734 38.9238C95.601 39.3796 95.7833 39.7646 96.0203 40.0791C96.2618 40.389 96.5467 40.6237 96.8748 40.7832C97.2075 40.9427 97.5789 41.0225 97.9891 41.0225C98.4174 41.0225 98.798 40.9427 99.1307 40.7832C99.4633 40.6237 99.7436 40.389 99.9715 40.0791C100.204 39.7646 100.379 39.3796 100.498 38.9238C100.616 38.4635 100.676 37.9349 100.676 37.3379ZM110.934 39.0947V32.0469H112.246V39.0947C112.246 39.751 112.112 40.3047 111.843 40.7559C111.574 41.207 111.202 41.5511 110.729 41.7881C110.259 42.0205 109.719 42.1367 109.108 42.1367C108.498 42.1367 107.955 42.0319 107.481 41.8223C107.007 41.6126 106.636 41.2936 106.367 40.8652C106.098 40.4368 105.964 39.8968 105.964 39.2451H107.283C107.283 39.6644 107.361 40.0085 107.516 40.2773C107.671 40.5462 107.885 40.7445 108.158 40.8721C108.436 40.9997 108.753 41.0635 109.108 41.0635C109.455 41.0635 109.765 40.9906 110.038 40.8447C110.316 40.6943 110.535 40.4733 110.694 40.1816C110.854 39.8854 110.934 39.5231 110.934 39.0947ZM123.605 40.9268V42H118.334V40.9268H123.605ZM118.601 32.0469V42H117.281V32.0469H118.601ZM122.907 36.3262V37.3994H118.334V36.3262H122.907ZM123.536 32.0469V33.127H118.334V32.0469H123.536ZM134.047 38.835H135.36C135.291 39.4639 135.111 40.0267 134.82 40.5234C134.528 41.0202 134.116 41.4144 133.582 41.7061C133.049 41.9932 132.384 42.1367 131.586 42.1367C131.003 42.1367 130.472 42.0273 129.994 41.8086C129.52 41.5898 129.112 41.2799 128.77 40.8789C128.428 40.4733 128.164 39.988 127.977 39.4229C127.795 38.8532 127.704 38.2197 127.704 37.5225V36.5312C127.704 35.834 127.795 35.2028 127.977 34.6377C128.164 34.068 128.43 33.5804 128.777 33.1748C129.128 32.7692 129.549 32.457 130.041 32.2383C130.534 32.0195 131.087 31.9102 131.703 31.9102C132.454 31.9102 133.09 32.0514 133.61 32.334C134.129 32.6165 134.533 33.0085 134.82 33.5098C135.111 34.0065 135.291 34.583 135.36 35.2393H134.047C133.983 34.7744 133.865 34.3757 133.692 34.043C133.519 33.7057 133.273 33.446 132.954 33.2637C132.635 33.0814 132.218 32.9902 131.703 32.9902C131.26 32.9902 130.871 33.0745 130.534 33.2432C130.201 33.4118 129.921 33.651 129.693 33.9609C129.469 34.2708 129.301 34.6423 129.187 35.0752C129.073 35.5081 129.016 35.9889 129.016 36.5176V37.5225C129.016 38.0101 129.066 38.4681 129.166 38.8965C129.271 39.3249 129.428 39.7008 129.638 40.0244C129.848 40.348 130.114 40.6032 130.438 40.79C130.761 40.9723 131.144 41.0635 131.586 41.0635C132.147 41.0635 132.593 40.9746 132.926 40.7969C133.259 40.6191 133.51 40.3639 133.678 40.0312C133.851 39.6986 133.974 39.2998 134.047 38.835ZM143.43 32.0469V42H142.131V32.0469H143.43ZM146.629 32.0469V33.127H138.939V32.0469H146.629Z" fill="#333333"/>
<defs>
<clipPath id="clip0_563_69">
<rect width="68.5517" height="41.5272" fill="white" transform="translate(38.4482 0.142822)"/>
</clipPath>
</defs>
</svg>
